<svg width="40" height="40" viewBox="0 0 40 40" fill="none" xmlns="http://www.w3.org/2000/svg">
<path fill-rule="evenodd" clip-rule="evenodd" d="M30 15.6666C30.5523 15.6666 31 16.1143 31 16.6666V33.3333C31 33.8856 30.5523 34.3333 30 34.3333C29.4477 34.3333 29 33.8856 29 33.3333V16.6666C29 16.1143 29.4477 15.6666 30 15.6666Z" fill="#6366F1"/>
<path fill-rule="evenodd" clip-rule="evenodd" d="M20 5.66663C20.5523 5.66663 21 6.11434 21 6.66663V33.3333C21 33.8856 20.5523 34.3333 20 34.3333C19.4477 34.3333 19 33.8856 19 33.3333V6.66663C19 6.11434 19.4477 5.66663 20 5.66663Z" fill="#6366F1"/>
<path fill-rule="evenodd" clip-rule="evenodd" d="M10 22.3334C10.5523 22.3334 11 22.7811 11 23.3334V33.3334C11 33.8857 10.5523 34.3334 10 34.3334C9.44772 34.3334 9 33.8857 9 33.3334V23.3334C9 22.7811 9.44772 22.3334 10 22.3334Z" fill="#6366F1"/>
</svg>
