<svg width="40" height="40" viewBox="0 0 40 40" fill="none" xmlns="http://www.w3.org/2000/svg">
<path fill-rule="evenodd" clip-rule="evenodd" d="M20 0.666626C20.5523 0.666626 21 1.11434 21 1.66663V38.3333C21 38.8856 20.5523 39.3333 20 39.3333C19.4477 39.3333 19 38.8856 19 38.3333V1.66663C19 1.11434 19.4477 0.666626 20 0.666626Z" fill="#6366F1"/>
<path fill-rule="evenodd" clip-rule="evenodd" d="M11.0014 9.33481C12.2829 8.05331 14.021 7.33337 15.8333 7.33337H28.3333C28.8856 7.33337 29.3333 7.78109 29.3333 8.33337C29.3333 8.88566 28.8856 9.33337 28.3333 9.33337H15.8333C14.5515 9.33337 13.3221 9.8426 12.4157 10.749C11.5092 11.6555 11 12.8848 11 14.1667C11 15.4486 11.5092 16.678 12.4157 17.5844C13.3221 18.4908 14.5515 19 15.8333 19H24.1667C25.979 19 27.7171 19.72 28.9986 21.0015C30.2801 22.283 31 24.0211 31 25.8334C31 27.6457 30.2801 29.3838 28.9986 30.6653C27.7171 31.9468 25.979 32.6667 24.1667 32.6667H10C9.44772 32.6667 9 32.219 9 31.6667C9 31.1144 9.44772 30.6667 10 30.6667H24.1667C25.4485 30.6667 26.6779 30.1575 27.5844 29.2511C28.4908 28.3446 29 27.1153 29 25.8334C29 24.5515 28.4908 23.3221 27.5844 22.4157C26.6779 21.5093 25.4485 21 24.1667 21H15.8333C14.021 21 12.2829 20.2801 11.0014 18.9986C9.71994 17.7171 9 15.979 9 14.1667C9 12.3544 9.71994 10.6163 11.0014 9.33481Z" fill="#6366F1"/>
</svg>
